<svg xmlns="http://www.w3.org/2000/svg" viewBox="0 0 1132.6 254.35"><title>treehouse-logo-white</title><path d="M327.85,187.12c-22.17,0-32.18-15.19-32.18-35.21V81.3c0-7,5.18-12.51,12-12.51a12.21,12.21,0,0,1,12,12.51V93.46H342a10.83,10.83,0,0,1,11.08,10.72c0,5.9-5.18,10.37-11.08,10.37H319.63v36.82c0,8.58,3.75,13.23,11.62,13.23a42.16,42.16,0,0,0,11.08-2c9.12-2.15,14.84,3.57,14.84,10.19,0,3.93-2,8-7.51,10.55C343.4,186.23,334.64,187.12,327.85,187.12Z" fill="#fff"/><path d="M431.88,102.57c0,4.83-3.75,11.26-11.26,11.26-4.11,0-8-1.79-13.41-1.61-5.9.18-9.3,3.4-9.3,11.62v50.59a12,12,0,1,1-24,0V119.38c0-18.59,10.9-30.57,31.46-30.57a71.29,71.29,0,0,1,15.37,1.43C428.13,92.21,431.88,96.68,431.88,102.57Z" fill="#fff"/><path d="M524.84,134.21c0,7-3.57,12-12.33,12H465V148c0,11.26,8.58,17.34,20.56,17.34a54.56,54.56,0,0,0,19.13-3.93c9.47-3.57,15.73,2.86,15.73,9.47,0,3.4-1.25,7.15-6.08,10-6.61,3.93-18.05,6.26-29.49,6.26-24.67,0-41.29-15.55-43.08-37.89a185.61,185.61,0,0,1,0-22.34c2.14-23.24,18.77-38.07,42.18-38.07,24.31,0,40.93,16.27,40.93,41.47Zm-25-4.29c1.25,0,2-.72,2-2.15.54-10.9-6.26-18.23-17.88-18.23-12.69,0-18.95,8-18.95,20.38Z" fill="#fff"/><path d="M625.83,134.21c0,7-3.57,12-12.33,12H566V148c0,11.26,8.58,17.34,20.56,17.34a54.56,54.56,0,0,0,19.13-3.93c9.47-3.57,15.73,2.86,15.73,9.47,0,3.4-1.25,7.15-6.08,10-6.61,3.93-18.05,6.26-29.49,6.26-24.67,0-41.29-15.55-43.08-37.89a185.57,185.57,0,0,1,0-22.34c2.14-23.24,18.77-38.07,42.18-38.07,24.31,0,40.93,16.27,40.93,41.47Zm-25-4.29c1.25,0,2-.72,2-2.15.54-10.9-6.26-18.23-17.88-18.23-12.69,0-18.95,8-18.95,20.38Z" fill="#fff"/><path d="M670.34,95.78c3.93-3.57,13-7,22.52-7C715.57,88.81,729,102.4,729,128V173.9c0,7.15-5,12.69-12.16,12.69-6.61,0-11.8-5.54-11.8-12.69V129.21c0-10.9-6.26-17-16.09-17-7.51,0-14.84,3.4-18.59,7.51v54.52c0,6.79-5,12.33-11.8,12.33a12.32,12.32,0,0,1-12.15-12.33V69.68c0-7,5.18-12.33,12-12.33a12.06,12.06,0,0,1,12,12.33Z" fill="#fff"/><path d="M792.79,187.12c-23.42,0-41.11-15-42.9-36.29a203,203,0,0,1,0-25.56c1.79-21.45,19.48-36.47,42.9-36.47,23.6,0,40.93,15,42.72,36.47a200.59,200.59,0,0,1,0,25.38C833.72,172.11,816.38,187.12,792.79,187.12ZM811.74,129c-.54-10.19-7.69-17.34-18.95-17.34s-18.23,7.15-19.13,17.34a149.47,149.47,0,0,0,0,17.88c.89,10.19,7.87,17.34,19.13,17.34s18.23-7.15,18.95-17.34A149.05,149.05,0,0,0,811.74,129Z" fill="#fff"/><path d="M856.42,102c0-7.15,4.29-12.69,11.8-12.69,6.79,0,12.15,5.54,12.15,12.69v45.58c0,10.73,7,16.62,17.16,16.62a33.16,33.16,0,0,0,17.52-4.65V101.68c0-6.79,5-12.33,12-12.33a12.17,12.17,0,0,1,12,12.33v66.85c0,4.11-1.07,6.44-4.29,8.4-5.54,3.93-18.59,10.19-37.72,10.19-25.74,0-40.58-13.94-40.58-39.15Z" fill="#fff"/><path d="M1033.39,156c0,20-16.62,31.1-37.36,31.1-16.8,0-27.53-4.83-34.14-10.37-4.29-3.57-5.54-10.37-2.14-14.84,3.57-4.83,9.65-5.9,15.55-2.15a39.23,39.23,0,0,0,21.27,5.9c9.3,0,13.59-3.4,13.59-8.22,0-3.93-2.86-6.61-10.37-8.4-6.43-1.43-6.26-1.25-13.23-3-14.66-3.75-26.1-12-26.1-27.35,0-19.31,15.55-29.85,36.47-29.85,11.26,0,22.88,2.86,29.14,8,5.18,4.29,4.83,11.62,1.07,15.91-3.57,3.93-9.65,4.47-15.55,1.43A38.46,38.46,0,0,0,996,110.26c-8.94,0-12.69,3.4-12.69,7.69,0,3.75,2.68,6.26,10.72,8l12.69,2.86C1024.63,133.14,1033.39,141.9,1033.39,156Z" fill="#fff"/><path d="M1132.6,134.21c0,7-3.57,12-12.33,12h-47.55V148c0,11.26,8.58,17.34,20.56,17.34a54.57,54.57,0,0,0,19.13-3.93c9.47-3.57,15.73,2.86,15.73,9.47,0,3.4-1.25,7.15-6.08,10-6.61,3.93-18.05,6.26-29.49,6.26-24.67,0-41.29-15.55-43.08-37.89a186.22,186.22,0,0,1,0-22.34c2.15-23.24,18.77-38.07,42.19-38.07,24.31,0,40.93,16.27,40.93,41.47Zm-25-4.29c1.25,0,2-.72,2-2.15.54-10.9-6.26-18.23-17.87-18.23-12.69,0-18.95,8-18.95,20.38Z" fill="#fff"/><path d="M206.59,46.41c-8.43-4.76-21.89,2.9-30.06,17.12l-14.8,25.75a32.47,32.47,0,0,0,2.19,33.29l.43.62c6.86,9.84,16.06,18.93,19.1,22.18a16.81,16.81,0,1,1-28.94,9.33c.48-3.69-.7-9.71-6-15.61s-16.12,5.25-19.62,16.72l-.16.53c-3.5,11.47-5.71,21.48-5,22.44a18.94,18.94,0,1,1-24.53-6q.62-.33,1.26-.61c.71-.31,2.71-5.13,4.44-10.83s2.48-7.7,3.15-10.31c.89-3.51,2.2-10.8,1.55-14.41-.72-4-4.85-4.29-9.14-1.22-2.59,1.85-6.87,5.5-9,7-3.93,2.81-7.21,8.26-8.95,11.61a16.69,16.69,0,1,1-18.36-24c4.21-.91,18.51-9.65,27.13-15.82a32,32,0,0,0,5-4.07c2.58-3.3-.2-5.9-2.7-5.63-7.33.81-14.89,1.85-16.31,3.66A14.93,14.93,0,1,1,65.94,83.94c5.36.15,19.48,3,31.29.92l3-.54c11.81-2.09,25.95-12.37,31.58-23l12.32-21.64c6.8-12,6.3-25-1.12-29.24l-13.44-7.6C122.81-1,111.71-1,104.92,2.87L12.34,55.06C5.55,58.88,0,68.39,0,76.18v102c0,7.79,5.55,17.3,12.34,21.12l92.58,52.19c6.79,3.83,17.89,3.82,24.67,0l92.26-52.16c6.78-3.83,12.33-13.35,12.33-21.14v-102c0-7.79-5.55-17.3-12.33-21.14Z" fill="#fff"/></svg>